<svg id="Layer_1" data-name="Layer 1" xmlns="http://www.w3.org/2000/svg" xmlns:xlink="http://www.w3.org/1999/xlink" viewBox="0 0 946 1500"><defs><style>.cls-1,.cls-2,.cls-3,.cls-5{fill:#fff;}.cls-1,.cls-4{fill-opacity:0;}.cls-2{font-size:21px;}.cls-2,.cls-5{font-family:MyriadPro-BoldCond, Myriad Pro;}.cls-2,.cls-3,.cls-5{font-weight:700;}.cls-3{font-size:19px;font-family:IRANSans-Bold, IRANSans;}.cls-5{font-size:17.33px;}</style></defs><title>tech-cafe</title><image width="946" height="1500" xlink:href="/statics/salon/tech-cafe.jpg"/><rect id="_1" data-name="1" class="cls-1" x="909" y="634" width="32" height="35" rx="3.5" ry="3.5"/><text class="cls-2" transform="translate(915.46 658.28)">1</text><rect id="_112" data-name="112" class="cls-1" x="691.45" y="675.64" width="33.23" height="31.17" rx="3.5" ry="3.5"/><text class="cls-3" transform="translate(694.64 692.02)">112</text><rect id="_116" data-name="116" class="cls-1" x="871.27" y="676" width="33.23" height="31.17" rx="3.5" ry="3.5"/><text class="cls-2" transform="translate(874.01 692.28)">116</text><rect id="_115" data-name="115" class="cls-1" x="825.88" y="676" width="33.23" height="31.17" rx="3.5" ry="3.5"/><text class="cls-2" transform="translate(828.62 692.28)">115</text><rect id="_114" data-name="114" class="cls-1" x="781.27" y="676" width="33.23" height="31.17" rx="3.5" ry="3.5"/><text class="cls-2" transform="translate(784.01 692.28)">114</text><rect id="_113" data-name="113" class="cls-1" x="736.65" y="676" width="33.23" height="31.17" rx="3.5" ry="3.5"/><text class="cls-2" transform="translate(739.4 692.28)">113</text><rect id="_9" data-name="9" class="cls-1" x="619.01" y="221.96" width="33.23" height="31.17"/><text class="cls-2" transform="translate(630.7 243.24)">9</text><rect id="_10" data-name="10" class="cls-1" x="618.56" y="161.49" width="33.23" height="31.17"/><text class="cls-2" transform="translate(625.77 182.76)">10</text><rect id="_11" data-name="11" class="cls-1" x="618.1" y="102.11" width="33.23" height="31.17"/><text class="cls-2" transform="translate(625.32 123.39)">11</text><rect id="_12" data-name="12" class="cls-1" x="566.26" y="46.51" width="33.23" height="31.17"/><text class="cls-2" transform="translate(573.48 67.79)">12</text><rect id="_13" data-name="13" class="cls-1" x="519.52" y="46.51" width="33.23" height="31.17"/><text class="cls-2" transform="translate(526.73 67.79)">13</text><rect id="_14" data-name="14" class="cls-1" x="473" y="46.51" width="33.23" height="31.17"/><text class="cls-2" transform="translate(480.21 67.79)">14</text><rect id="_15" data-name="15" class="cls-1" x="422.93" y="99.9" width="33.23" height="31.17"/><text class="cls-2" transform="translate(430.15 121.18)">15</text><rect id="_16" data-name="16" class="cls-1" x="422.93" y="160.6" width="33.23" height="31.17"/><text class="cls-2" transform="translate(430.15 181.88)">16</text><rect id="_17" data-name="17" class="cls-1" x="422.93" y="220.64" width="33.23" height="31.17"/><text class="cls-2" transform="translate(430.15 241.91)">17</text><rect id="_20" data-name="20" class="cls-1" x="353.53" y="101.23" width="33.23" height="31.17"/><text class="cls-2" transform="translate(360.74 122.51)">20</text><rect id="_19" data-name="19" class="cls-1" x="353.53" y="160.93" width="33.23" height="31.17"/><text class="cls-2" transform="translate(360.74 182.21)">19</text><rect id="_18" data-name="18" class="cls-1" x="353.53" y="220.97" width="33.23" height="31.17"/><text class="cls-2" transform="translate(360.74 242.24)">18</text><rect id="_49" data-name="49" class="cls-1" x="358.13" y="625.24" width="33.23" height="31.17"/><text class="cls-2" transform="translate(365.34 646.52)">49</text><rect id="_50" data-name="50" class="cls-1" x="357.67" y="672" width="33.23" height="31.17"/><text class="cls-2" transform="translate(364.89 693.28)">50</text><rect id="_51" data-name="51" class="cls-1" x="358.13" y="718.07" width="33.23" height="31.17"/><text class="cls-2" transform="translate(365.34 739.35)">51</text><rect id="_74" data-name="74" class="cls-1" x="83.8" y="1031.74" width="33.23" height="31.17"/><text class="cls-2" transform="translate(91.01 1053.01)">74</text><rect id="_75" data-name="75" class="cls-1" x="25.32" y="1079.47" width="33.23" height="31.17"/><text class="cls-2" transform="translate(32.54 1100.75)">75</text><rect id="_77" data-name="77" class="cls-1" x="25.32" y="1171.43" width="33.23" height="31.17"/><text class="cls-2" transform="translate(32.54 1192.71)">77</text><rect id="_76" data-name="76" class="cls-1" x="25.32" y="1125.51" width="33.23" height="31.17"/><text class="cls-2" transform="translate(32.54 1146.78)">76</text><rect id="_80" data-name="80" class="cls-1" x="143.94" y="1097.04" width="33.23" height="31.17"/><text class="cls-2" transform="translate(151.15 1118.32)">80</text><rect id="_79" data-name="79" class="cls-1" x="143.48" y="1156.85" width="33.23" height="31.17"/><text class="cls-2" transform="translate(150.7 1178.13)">79</text><rect id="_78" data-name="78" class="cls-1" x="84.8" y="1224.65" width="33.23" height="31.17"/><text class="cls-2" transform="translate(92.01 1245.93)">78</text><rect id="_24" data-name="24" class="cls-1" x="149.78" y="102.23" width="33.23" height="31.17"/><text class="cls-2" transform="translate(156.99 123.51)">24</text><rect id="_25" data-name="25" class="cls-1" x="149.78" y="160.93" width="33.23" height="31.17"/><text class="cls-2" transform="translate(156.99 182.21)">25</text><rect id="_26" data-name="26" class="cls-1" x="149.78" y="220.97" width="33.23" height="31.17"/><text class="cls-2" transform="translate(156.99 242.24)">26</text><rect id="_2" data-name="2" class="cls-1" x="908.93" y="589.41" width="32" height="35" rx="3.5" ry="3.5"/><text class="cls-2" transform="translate(915.39 612.69)">2</text><rect id="_3" data-name="3" class="cls-1" x="908.86" y="544.82" width="32" height="35" rx="3.5" ry="3.5"/><text class="cls-2" transform="translate(915.32 568.1)">3</text><rect id="_4" data-name="4" class="cls-1" x="908.86" y="500.23" width="32" height="35" rx="3.5" ry="3.5"/><text class="cls-2" transform="translate(915.32 525.51)">4</text><rect id="_5" data-name="5" class="cls-1" x="908.79" y="455.64" width="32" height="35" rx="3.5" ry="3.5"/><text class="cls-2" transform="translate(915.25 479.92)">5</text><rect id="_6" data-name="6" class="cls-1" x="907.73" y="411.05" width="32" height="35" rx="3.6" ry="3.6"/><text class="cls-2" transform="translate(914.71 434.33)">6</text><rect id="_7" data-name="7" class="cls-1" x="907.69" y="365.47" width="32" height="35" rx="3.5" ry="3.5"/><text class="cls-2" transform="translate(915.15 389.74)">7</text><rect id="_8" data-name="8" class="cls-1" x="907.66" y="319.88" width="32" height="35" rx="3.5" ry="3.5"/><text class="cls-2" transform="translate(915.12 344.15)">8</text><rect id="_39" data-name="39" class="cls-4" x="514.68" y="396.86" width="32" height="28.89" rx="3.5" ry="3.5"/><text class="cls-5" transform="translate(521.67 420.89) scale(1.21 1)">39</text><rect id="_52" data-name="52" class="cls-4" x="514.68" y="577.85" width="32" height="28.89" rx="3.5" ry="3.5"/><text class="cls-5" transform="translate(521.67 601.88) scale(1.21 1)">52</text><rect id="_47" data-name="47" class="cls-4" x="297.96" y="581.8" width="32" height="28.89" rx="3.5" ry="3.5"/><text class="cls-5" transform="translate(304.94 605.84) scale(1.21 1)">47</text><rect id="_37" data-name="37" class="cls-4" x="360.81" y="498.73" width="32" height="28.89" rx="3.5" ry="3.5"/><text class="cls-5" transform="translate(367.79 514.77) scale(1.21 1)">37</text><rect id="_31" data-name="31" class="cls-4" x="179.17" y="525.51" width="32" height="28.89" rx="3.5" ry="3.5"/><text class="cls-5" transform="translate(186.16 541.55) scale(1.21 1)">31</text><rect id="_35" data-name="35" class="cls-4" x="360.81" y="396.86" width="32" height="28.89" rx="3.5" ry="3.5"/><text class="cls-5" transform="translate(367.79 420.89) scale(1.21 1)">35</text><rect id="_27" data-name="27" class="cls-4" x="179.24" y="340.94" width="32" height="28.89" rx="3.5" ry="3.5"/><text class="cls-5" transform="translate(186.23 364.98) scale(1.21 1)">27</text><rect id="_41" data-name="41" class="cls-4" x="514.68" y="498.73" width="32" height="28.89" rx="3.5" ry="3.5"/><text class="cls-5" transform="translate(521.67 514.77) scale(1.21 1)">41</text><rect id="_56" data-name="56" class="cls-4" x="516.68" y="761.77" width="32" height="28.89" rx="3.5" ry="3.5"/><text class="cls-5" transform="translate(523.67 777.8) scale(1.21 1)">56</text><rect id="_48" data-name="48" class="cls-4" x="297.6" y="767.21" width="32" height="28.89" rx="3.5" ry="3.5"/><text class="cls-5" transform="translate(304.59 783.25) scale(1.21 1)">48</text><rect id="_42" data-name="42" class="cls-4" x="567.6" y="447.62" width="28.83" height="28.89" rx="3.5" ry="3.5"/><text class="cls-5" transform="translate(568.9 468.65) scale(1.09 1)">42</text><rect id="_53" data-name="53" class="cls-4" x="568.01" y="625.38" width="28.83" height="28.89" rx="3.5" ry="3.5"/><text class="cls-5" transform="translate(569.3 646.42) scale(1.09 1)">53</text><rect id="_54" data-name="54" class="cls-4" x="567.6" y="670" width="28.83" height="28.89" rx="3.5" ry="3.5"/><text class="cls-5" transform="translate(568.9 691.04) scale(1.09 1)">54</text><rect id="_55" data-name="55" class="cls-4" x="567.6" y="714.62" width="28.83" height="28.89" rx="3.5" ry="3.5"/><text class="cls-5" transform="translate(568.9 735.66) scale(1.09 1)">55</text><rect id="_34" data-name="34" class="cls-4" x="230.86" y="388.86" width="28.83" height="28.89" rx="3.5" ry="3.5"/><text class="cls-5" transform="translate(232.16 409.89) scale(1.09 1)">34</text><rect id="_33" data-name="33" class="cls-4" x="230.46" y="433.48" width="28.83" height="28.89" rx="3.5" ry="3.5"/><text class="cls-5" transform="translate(231.75 454.51) scale(1.09 1)">33</text><rect id="_32" data-name="32" class="cls-4" x="230.46" y="478.1" width="28.83" height="28.89" rx="3.5" ry="3.5"/><text class="cls-5" transform="translate(231.75 499.14) scale(1.09 1)">32</text><rect id="_38" data-name="38" class="cls-4" x="413.6" y="447.62" width="28.83" height="28.89" rx="3.5" ry="3.5"/><text class="cls-5" transform="translate(414.9 468.65) scale(1.09 1)">38</text><rect id="_36" data-name="36" class="cls-4" x="311.6" y="447.62" width="28.83" height="28.89" rx="3.5" ry="3.5"/><text class="cls-5" transform="translate(323.9 468.65) scale(1.09 1)">36</text><rect id="_28" data-name="28" class="cls-4" x="130.4" y="388.86" width="28.83" height="28.89" rx="3.5" ry="3.5"/><text class="cls-5" transform="translate(142.69 409.89) scale(1.09 1)">28</text><rect id="_29" data-name="29" class="cls-4" x="130.4" y="433.18" width="28.83" height="28.89" rx="3.5" ry="3.5"/><text class="cls-5" transform="translate(142.69 454.21) scale(1.09 1)">29</text><rect id="_30" data-name="30" class="cls-4" x="130.4" y="477.49" width="28.83" height="28.89" rx="3.5" ry="3.5"/><text class="cls-5" transform="translate(142.69 498.53) scale(1.09 1)">30</text><rect id="_60" data-name="60" class="cls-4" x="64.31" y="872.09" width="32" height="28.89" rx="3.5" ry="3.5"/><text class="cls-5" transform="translate(71.3 888.13) scale(1.21 1)">60</text><rect id="_58" data-name="58" class="cls-4" x="64.31" y="770.21" width="32" height="28.89" rx="3.5" ry="3.5"/><text class="cls-5" transform="translate(71.3 794.25) scale(1.21 1)">58</text><rect id="_61" data-name="61" class="cls-4" x="117.1" y="819.98" width="28.83" height="28.89" rx="3.5" ry="3.5"/><text class="cls-5" transform="translate(118.4 841.01) scale(1.09 1)">61</text><rect id="_59" data-name="59" class="cls-4" x="14.1" y="819.98" width="28.83" height="28.89" rx="3.5" ry="3.5"/><text class="cls-5" transform="translate(26.4 841.01) scale(1.09 1)">59</text><rect id="_45" data-name="45" class="cls-4" x="173.67" y="721.11" width="32" height="28.89" rx="3.5" ry="3.5"/><text class="cls-5" transform="translate(180.65 737.15) scale(1.21 1)">45</text><rect id="_43" data-name="43" class="cls-4" x="173.67" y="619.24" width="32" height="28.89" rx="3.5" ry="3.5"/><text class="cls-5" transform="translate(180.65 643.28) scale(1.21 1)">43</text><rect id="_46" data-name="46" class="cls-4" x="226.46" y="670" width="28.83" height="28.89" rx="3.5" ry="3.5"/><text class="cls-5" transform="translate(227.75 691.04) scale(1.09 1)">46</text><rect id="_44" data-name="44" class="cls-4" x="124.46" y="670" width="28.83" height="28.89" rx="3.5" ry="3.5"/><text class="cls-5" transform="translate(136.75 691.04) scale(1.09 1)">44</text><rect id="_64" data-name="64" class="cls-4" x="166.31" y="1004.85" width="32" height="28.89" rx="3.5" ry="3.5"/><text class="cls-5" transform="translate(173.3 1020.89) scale(1.21 1)">64</text><rect id="_62" data-name="62" class="cls-4" x="165.31" y="901.98" width="32" height="28.89" rx="3.5" ry="3.5"/><text class="cls-5" transform="translate(172.3 926.01) scale(1.21 1)">62</text><rect id="_65" data-name="65" class="cls-4" x="223.1" y="952.74" width="28.83" height="28.89" rx="3.5" ry="3.5"/><text class="cls-5" transform="translate(224.4 973.77) scale(1.09 1)">65</text><rect id="_63" data-name="63" class="cls-4" x="115.1" y="952.74" width="28.83" height="28.89" rx="3.5" ry="3.5"/><text class="cls-5" transform="translate(127.4 973.77) scale(1.09 1)">63</text><rect id="_68" data-name="68" class="cls-4" x="323.37" y="1003.67" width="32" height="28.89" rx="3.5" ry="3.5"/><text class="cls-5" transform="translate(330.35 1019.71) scale(1.21 1)">68</text><rect id="_82" data-name="82" class="cls-4" x="76.24" y="1434.77" width="32" height="28.89" rx="3.5" ry="3.5"/><text class="cls-5" transform="translate(83.23 1450.81) scale(1.21 1)">82</text><rect id="_83" data-name="83" class="cls-4" x="121.39" y="1434.77" width="32" height="28.89" rx="3.5" ry="3.5"/><text class="cls-5" transform="translate(128.38 1450.81) scale(1.21 1)">83</text><rect id="_84" data-name="84" class="cls-4" x="166.33" y="1434.77" width="32" height="28.89" rx="3.5" ry="3.5"/><text class="cls-5" transform="translate(173.31 1450.81) scale(1.21 1)">84</text><rect id="_85" data-name="85" class="cls-4" x="211.48" y="1434.77" width="32" height="28.89" rx="3.5" ry="3.5"/><text class="cls-5" transform="translate(218.46 1450.81) scale(1.21 1)">85</text><rect id="_86" data-name="86" class="cls-4" x="256.02" y="1434.77" width="32" height="28.89" rx="3.5" ry="3.5"/><text class="cls-5" transform="translate(263.01 1450.81) scale(1.21 1)">86</text><rect id="_87" data-name="87" class="cls-4" x="301.17" y="1434.77" width="32" height="28.89" rx="3.5" ry="3.5"/><text class="cls-5" transform="translate(308.16 1450.81) scale(1.21 1)">87</text><rect id="_88" data-name="88" class="cls-4" x="346.11" y="1434.77" width="32" height="28.89" rx="3.5" ry="3.5"/><text class="cls-5" transform="translate(353.09 1450.81) scale(1.21 1)">88</text><rect id="_89" data-name="89" class="cls-4" x="388.26" y="1434.77" width="32" height="28.89" rx="3.5" ry="3.5"/><text class="cls-5" transform="translate(395.24 1450.81) scale(1.21 1)">89</text><rect id="_90" data-name="90" class="cls-4" x="433.59" y="1434.77" width="32" height="28.89" rx="3.5" ry="3.5"/><text class="cls-5" transform="translate(440.57 1450.81) scale(1.21 1)">90</text><rect id="_91" data-name="91" class="cls-4" x="477.74" y="1434.77" width="32" height="28.89" rx="3.5" ry="3.5"/><text class="cls-5" transform="translate(484.72 1450.81) scale(1.21 1)">91</text><rect id="_92" data-name="92" class="cls-4" x="522.67" y="1434.77" width="32" height="28.89" rx="3.5" ry="3.5"/><text class="cls-5" transform="translate(529.66 1450.81) scale(1.21 1)">92</text><rect id="_93" data-name="93" class="cls-4" x="567.82" y="1434.77" width="32" height="28.89" rx="3.5" ry="3.5"/><text class="cls-5" transform="translate(574.81 1450.81) scale(1.21 1)">93</text><rect id="_66" data-name="66" class="cls-4" x="323.37" y="901.8" width="32" height="28.89" rx="3.5" ry="3.5"/><text class="cls-5" transform="translate(330.35 925.83) scale(1.21 1)">66</text><rect id="_94" data-name="94" class="cls-4" x="76.31" y="1324.67" width="32" height="28.89" rx="3.5" ry="3.5"/><text class="cls-5" transform="translate(83.3 1348.7) scale(1.21 1)">94</text><rect id="_69" data-name="69" class="cls-4" x="376.16" y="952.56" width="28.83" height="28.89" rx="3.5" ry="3.5"/><text class="cls-5" transform="translate(377.46 973.59) scale(1.09 1)">69</text><rect id="_67" data-name="67" class="cls-4" x="274.16" y="952.56" width="28.83" height="28.89" rx="3.5" ry="3.5"/><text class="cls-5" transform="translate(286.46 973.59) scale(1.09 1)">67</text><rect id="_72" data-name="72" class="cls-4" x="474.95" y="1002.85" width="32" height="28.89" rx="3.5" ry="3.5"/><text class="cls-5" transform="translate(481.94 1018.89) scale(1.21 1)">72</text><rect id="_70" data-name="70" class="cls-4" x="474.95" y="900.98" width="32" height="28.89" rx="3.5" ry="3.5"/><text class="cls-5" transform="translate(481.94 925.01) scale(1.21 1)">70</text><rect id="_73" data-name="73" class="cls-4" x="526.74" y="951.74" width="28.83" height="28.89" rx="3.5" ry="3.5"/><text class="cls-5" transform="translate(528.04 972.77) scale(1.09 1)">73</text><rect id="_71" data-name="71" class="cls-4" x="424.74" y="951.74" width="28.83" height="28.89" rx="3.5" ry="3.5"/><text class="cls-5" transform="translate(437.04 972.77) scale(1.09 1)">71</text><rect id="_111" data-name="111" class="cls-4" x="674.97" y="1220.65" width="28.83" height="28.89" rx="3.5" ry="3.5"/><text class="cls-5" transform="translate(683.24 1241.68) scale(1.09 1)">111</text><rect id="_110" data-name="110" class="cls-4" x="674.97" y="1264.08" width="28.83" height="28.89" rx="3.5" ry="3.5"/><text class="cls-5" transform="translate(683.24 1285.12) scale(1.09 1)">110</text><rect id="_109" data-name="109" class="cls-4" x="674.97" y="1310.51" width="28.83" height="28.89" rx="3.5" ry="3.5"/><text class="cls-5" transform="translate(683.24 1331.55) scale(1.09 1)">109</text><rect id="_108" data-name="108" class="cls-4" x="674.97" y="1354.94" width="28.83" height="28.89" rx="3.5" ry="3.5"/><text class="cls-5" transform="translate(683.24 1375.98) scale(1.09 1)">108</text><rect id="_107" data-name="107" class="cls-4" x="674.97" y="1399.38" width="28.83" height="28.89" rx="3.5" ry="3.5"/><text class="cls-5" transform="translate(683.24 1420.41) scale(1.09 1)">107</text><rect id="_106" data-name="106" class="cls-4" x="674.97" y="1444.81" width="28.83" height="28.89" rx="3.5" ry="3.5"/><text class="cls-5" transform="translate(683.24 1465.85) scale(1.09 1)">106</text><rect id="_81" data-name="81" class="cls-4" x="35.82" y="1385.39" width="28.83" height="28.89" rx="3.5" ry="3.5"/><text class="cls-5" transform="translate(48.12 1406.43) scale(1.09 1)">81</text><rect id="_40" data-name="40" class="cls-4" x="465.27" y="447.62" width="28.83" height="28.89" rx="3.5" ry="3.5"/><text class="cls-5" transform="translate(477.56 468.65) scale(1.09 1)">40</text><rect id="_57" data-name="57" class="cls-4" x="465.27" y="714.62" width="28.83" height="28.89" rx="3.5" ry="3.5"/><text class="cls-5" transform="translate(477.56 735.66) scale(1.09 1)">57</text><rect id="_21" data-name="21" class="cls-1" x="294.26" y="52.51" width="33.23" height="31.17"/><text class="cls-2" transform="translate(301.48 73.79)">21</text><rect id="_22" data-name="22" class="cls-1" x="247.52" y="52.51" width="33.23" height="31.17"/><text class="cls-2" transform="translate(254.73 73.79)">22</text><rect id="_23" data-name="23" class="cls-1" x="201" y="52.51" width="33.23" height="31.17"/><text class="cls-2" transform="translate(208.21 73.79)">23</text><rect id="_95" data-name="95" class="cls-4" x="120.46" y="1324.67" width="32" height="28.89" rx="3.5" ry="3.5"/><text class="cls-5" transform="translate(127.44 1348.7) scale(1.21 1)">95</text><rect id="_96" data-name="96" class="cls-4" x="165.94" y="1324.67" width="32" height="28.89" rx="3.5" ry="3.5"/><text class="cls-5" transform="translate(172.92 1348.7) scale(1.21 1)">96</text><rect id="_97" data-name="97" class="cls-4" x="210.09" y="1324.67" width="32" height="28.89" rx="3.5" ry="3.5"/><text class="cls-5" transform="translate(217.07 1348.7) scale(1.21 1)">97</text><rect id="_102" data-name="102" class="cls-4" x="434.04" y="1324.67" width="32" height="28.89" rx="3.5" ry="3.5"/><text class="cls-5" transform="translate(436.56 1348.7) scale(1.21 1)">102</text><rect id="_103" data-name="103" class="cls-4" x="477.19" y="1324.67" width="32" height="28.89" rx="3.5" ry="3.5"/><text class="cls-5" transform="translate(479.71 1348.7) scale(1.21 1)">103</text><rect id="_104" data-name="104" class="cls-4" x="522.67" y="1324.67" width="32" height="28.89" rx="3.5" ry="3.5"/><text class="cls-5" transform="translate(525.19 1348.7) scale(1.21 1)">104</text><rect id="_105" data-name="105" class="cls-4" x="567.82" y="1324.67" width="32" height="28.89" rx="3.5" ry="3.5"/><text class="cls-5" transform="translate(570.33 1348.7) scale(1.21 1)">105</text><rect id="_98" data-name="98" class="cls-4" x="256.48" y="1324.67" width="32" height="28.89" rx="3.5" ry="3.5"/><text class="cls-5" transform="translate(263.47 1348.7) scale(1.21 1)">98</text><rect id="_99" data-name="99" class="cls-4" x="300.63" y="1324.67" width="32" height="28.89" rx="3.5" ry="3.5"/><text class="cls-5" transform="translate(307.61 1348.7) scale(1.21 1)">99</text><rect id="_100" data-name="100" class="cls-4" x="346.11" y="1324.67" width="32" height="28.89" rx="3.5" ry="3.5"/><text class="cls-5" transform="translate(348.62 1348.7) scale(1.21 1)">100</text><rect id="_101" data-name="101" class="cls-4" x="388.26" y="1324.67" width="32" height="28.89" rx="3.5" ry="3.5"/><text class="cls-5" transform="translate(390.77 1348.7) scale(1.21 1)">101</text></svg>